PathFileType	4	(X/Y/Z)	s01c0103.trc
DataRate	CameraRate	NumFrames	NumMarkers	Units	OrigDataRate	OrigDataStartFrame	OrigNumFrames
200	200	5	48	mm	200	250	2000
Frame#	Time	racr			lacr			c7			jug			rlel			rdr			llel			ldr			s2			lic			ric			lasi			rasi			rpsi			lpsi			rgt			lgt			rth1			rth2			rth3			rth4			rlfc			rsh1			rsh2			rsh3			rsh4			rlmal			rmmal			rcal			rtoe			rmt5			lth1			lth2			lth4			lth3			llfc			lsh1			lsh2			lsh3			lsh4			llmal			lmmal			lcal			ltoe			lmt5			SBIKE			LBIKE			RBIKE			
		X1	Y1	Z1	X2	Y2	Z2	X3	Y3	Z3	X4	Y4	Z4	X5	Y5	Z5	X6	Y6	Z6	X7	Y7	Z7	X8	Y8	Z8	X9	Y9	Z9	X10	Y10	Z10	X11	Y11	Z11	X12	Y12	Z12	X13	Y13	Z13	X14	Y14	Z14	X15	Y15	Z15	X16	Y16	Z16	X17	Y17	Z17	X18	Y18	Z18	X19	Y19	Z19	X20	Y20	Z20	X21	Y21	Z21	X22	Y22	Z22	X23	Y23	Z23	X24	Y24	Z24	X25	Y25	Z25	X26	Y26	Z26	X27	Y27	Z27	X28	Y28	Z28	X29	Y29	Z29	X30	Y30	Z30	X31	Y31	Z31	X32	Y32	Z32	X33	Y33	Z33	X34	Y34	Z34	X35	Y35	Z35	X36	Y36	Z36	X37	Y37	Z37	X38	Y38	Z38	X39	Y39	Z39	X40	Y40	Z40	X41	Y41	Z41	X42	Y42	Z42	X43	Y43	Z43	X44	Y44	Z44	X45	Y45	Z45	X46	Y46	Z46	X47	Y47	Z47	X48	Y48	Z48	
250	1.2500	529.429810	1326.947266	-162.956589	487.398926	1332.302368	-459.819550	453.834412	1410.001587	-305.286499	471.640472	1247.157471	-292.805786	590.928589	1073.793701	-32.843128	735.608215	854.435425	-61.713280	527.622253	1051.397705	-549.669861	719.789490	900.005554	-413.382935	-79.155983	1215.009277	-254.010925	121.204842	1210.006958	-456.159119	87.203011	1209.781006	-98.970116	118.886833	1157.271118	-434.284210	107.542252	1158.624634	-124.312675	-48.380547	1249.600220	-196.925995	-51.120461	1248.138062	-303.757629	37.972031	1103.125610	-60.027840	24.669165	1079.126343	-440.421875	138.862778	1019.077576	-58.923641	208.673035	972.859375	-66.293488	277.716888	916.122253	-81.731049	237.808456	1014.605896	-88.580414	322.261627	812.255981	-104.824013	240.469528	729.236694	-66.264206	184.450089	665.408447	-67.533165	118.064964	605.879150	-76.369202	215.046722	636.973083	-110.985893	19.695774	520.495117	-91.148163	61.317909	514.625916	-171.814331	-35.017250	513.995667	-147.130096	183.964981	349.729126	-142.920639	82.908974	381.333130	-72.520592	89.986763	964.921021	-443.443298	161.976456	909.822021	-437.678192	196.727036	951.426270	-430.399719	223.128662	851.468811	-413.517548	301.992065	753.074097	-394.321960	269.658112	648.302551	-434.569244	269.678131	561.995789	-431.974121	266.615509	476.186798	-423.502533	321.824524	564.350891	-399.108093	260.270447	344.661713	-412.370880	418.307190	270.982086	-336.390594	208.431351	355.783661	-459.571472	500.318542	314.217712	-373.439148	399.461914	279.228821	-442.774628	-223.544403	892.556030	-253.197144	-13.479133	85.342422	-456.393646	-21.419012	80.568619	-55.933338	
251	1.2550	529.961365	1327.077881	-163.348389	488.085846	1332.441895	-460.428345	454.514191	1410.157715	-305.927368	471.634064	1247.087280	-293.448090	591.179932	1073.926636	-33.018017	735.740784	854.416260	-61.730148	527.950256	1051.273438	-549.889893	719.956360	899.571533	-415.294434	-77.961143	1213.251099	-255.339371	122.937439	1208.217651	-456.964905	87.782486	1209.298096	-99.502831	120.870880	1155.686035	-434.711090	108.466660	1158.408081	-124.639214	-47.633770	1248.218872	-198.080200	-49.815533	1246.515259	-304.870270	38.889351	1102.798340	-60.367851	27.393270	1077.155762	-440.777863	140.564972	1019.582092	-58.903713	210.916901	974.094299	-65.970840	280.708679	918.172668	-81.078392	239.676804	1016.028748	-88.286659	326.068878	814.555664	-104.075356	243.931976	731.954590	-65.755478	187.527939	668.470337	-67.189278	120.796089	609.334595	-76.188980	218.010727	639.859802	-110.595970	21.909363	524.797974	-91.048393	63.604321	518.745239	-171.703079	-32.902641	518.611816	-147.107330	185.245651	353.334930	-142.900620	84.437828	385.416046	-72.515907	92.179611	962.886780	-443.373016	163.926285	907.632812	-437.638092	198.760040	949.180786	-430.229553	224.927856	849.271606	-413.323151	303.030457	750.331665	-394.055023	269.921783	645.872559	-435.024078	270.643219	559.271301	-431.839874	267.017853	473.741821	-423.487640	322.466461	561.650391	-398.941467	260.346863	342.092255	-411.953278	415.205902	270.733490	-336.507294	208.367661	354.230316	-459.574829	499.917297	309.143341	-373.297089	399.138123	275.540222	-442.712036	-223.529160	892.551758	-253.175400	-13.459964	85.327850	-456.378632	-21.403879	80.572426	-55.935284	
252	1.2600	530.474976	1327.188354	-163.551163	488.825623	1332.593750	-461.048462	455.205353	1410.323608	-306.567139	471.591339	1247.000610	-294.118622	591.807373	1074.100342	-33.064571	736.087463	854.510437	-62.343548	528.433350	1051.170044	-550.049316	720.131592	899.118652	-417.150513	-76.662254	1211.415894	-256.706421	124.701286	1206.444458	-457.791107	88.455482	1208.763550	-99.950027	122.907166	1154.039551	-435.139526	109.513260	1158.152222	-124.883095	-46.753441	1246.796753	-199.290787	-48.483917	1244.820190	-306.005157	39.760674	1102.235474	-60.764065	30.172577	1075.094482	-441.111298	142.328644	1019.741516	-59.038628	213.192978	975.270508	-65.650696	283.652008	920.131348	-80.474480	241.553787	1017.581482	-87.929489	329.963318	816.924988	-103.346542	247.373337	734.696838	-65.340355	190.691315	671.547424	-66.855606	123.544006	612.848755	-76.011703	220.995453	642.830872	-110.254135	24.211788	529.019714	-90.945473	66.222733	522.917786	-171.507706	-30.685181	523.161133	-147.101456	186.706207	356.818756	-142.884766	86.024445	389.390747	-72.498932	94.450424	960.817871	-443.314880	165.949478	905.422302	-437.603485	201.018356	946.932129	-429.977875	226.943924	846.931580	-413.162720	304.116394	747.553406	-393.840088	270.774658	643.347473	-435.070465	271.255859	556.794189	-431.809814	267.340546	471.227386	-423.509674	323.081238	558.915466	-398.796112	260.386688	339.485657	-411.434906	412.037201	270.507355	-336.624603	208.306976	351.926056	-458.384003	499.246887	303.920990	-373.059265	398.507477	271.723480	-442.628448	-223.487625	892.575989	-253.190536	-13.424447	85.312950	-456.410309	-21.410009	80.576149	-55.944027	
253	1.2650	531.007385	1327.319702	-163.835297	489.621613	1332.753540	-461.675049	455.908600	1410.499146	-307.201782	471.511353	1246.896973	-294.817993	592.050049	1074.155518	-33.292179	736.139526	854.460449	-62.442863	528.668640	1051.019653	-550.218018	720.315308	898.646606	-418.949097	-75.272842	1209.536865	-258.040527	126.483528	1204.489502	-458.543182	89.164505	1208.106934	-100.435600	124.981117	1152.331909	-435.555115	110.508194	1157.874023	-125.142937	-45.866024	1245.285400	-200.477234	-47.126263	1243.057373	-307.162384	40.764072	1101.516602	-61.246845	32.989433	1072.957153	-441.426025	144.135605	1020.121399	-58.972862	215.510712	976.469788	-65.308228	286.630463	922.056274	-79.900368	243.495972	1019.127502	-87.429710	333.859161	819.289490	-102.657562	250.943817	737.540283	-64.878830	193.866364	674.713440	-66.542732	126.356697	616.466431	-75.793175	224.063522	645.766968	-109.914459	26.560921	533.365784	-90.827873	69.187302	527.126831	-171.226959	-28.369562	527.716736	-147.010284	188.269760	360.432831	-142.885437	87.716774	393.445801	-72.357590	96.781097	958.721375	-443.271576	168.019623	903.191406	-437.577057	203.041946	944.719482	-429.861633	228.765732	844.612976	-413.169312	305.241058	744.749146	-393.674866	271.758209	640.639221	-435.061066	271.790131	554.250671	-431.828003	267.590546	468.659149	-423.563354	323.600006	556.299683	-398.690460	260.372742	336.862366	-410.861237	408.800568	270.303802	-336.742493	208.239960	348.953979	-456.124939	498.335571	298.572083	-372.741516	397.600616	267.803131	-442.526886	-223.455902	892.641785	-253.182922	-13.439738	85.330475	-456.387756	-21.395670	80.567146	-55.938534	
254	1.2700	531.533569	1327.475342	-163.858673	490.477112	1332.916504	-462.303284	456.624664	1410.683960	-307.827209	471.393219	1246.776001	-295.546906	592.262878	1074.153809	-33.531353	736.185364	854.416382	-62.549343	528.764038	1050.832520	-550.402039	720.507629	898.154968	-420.688080	-73.825363	1207.599121	-259.401154	128.299301	1202.568848	-459.463470	89.990532	1207.437866	-100.892616	127.107452	1150.576294	-435.970612	111.576294	1157.599243	-125.421196	-44.949471	1243.731201	-201.706421	-45.742867	1241.232422	-308.342499	41.703365	1100.825684	-61.712814	35.826195	1070.758667	-441.725861	145.953156	1020.445679	-58.965893	217.877670	977.611267	-64.950378	289.851685	924.108154	-79.066124	245.454941	1020.510193	-87.053436	337.790100	821.766968	-102.009903	254.562485	740.342041	-64.452576	197.097595	677.901733	-66.213913	129.229401	620.065796	-75.640099	226.900436	648.745728	-109.600883	29.060438	537.640015	-90.768867	72.463310	531.340027	-170.865967	-25.887285	532.323181	-146.930054	189.904770	363.989410	-142.895370	89.529732	397.517090	-72.331161	99.153526	956.604248	-443.245880	170.110291	900.940857	-437.561493	205.251816	942.433167	-429.752930	230.622360	842.326477	-413.219147	306.395660	741.928833	-393.556976	272.617401	638.069336	-435.174744	272.447723	551.443420	-431.817474	267.774872	466.052612	-423.643433	324.702240	553.530518	-398.718414	260.287903	334.242950	-410.277802	405.495605	270.123108	-336.860962	208.157303	345.397064	-452.923676	497.211517	293.118011	-372.359711	396.448212	263.803589	-442.410431	-223.444016	892.664734	-253.193268	-13.422068	85.301270	-456.413574	-21.384506	80.567535	-55.932030	
